<svg width="373" height="697" viewBox="0 0 373 697" fill="none" xmlns="http://www.w3.org/2000/svg">
<g clip-path="url(#clip0_203_143)">
<rect width="373" height="697" rx="32" fill="#F0F3FB"/>
<path d="M250.16 98.2014L254.547 114.574C265.34 154.85 296.835 186.287 337.131 197.005L353.683 201.407C359.131 202.856 359.131 210.588 353.682 212.037L337.131 216.44C296.835 227.158 265.34 258.595 254.547 298.871L250.16 315.243C248.703 320.678 240.991 320.678 239.535 315.243L235.147 298.871C224.354 258.595 192.859 227.158 152.563 216.44L136.012 212.037C130.563 210.588 130.563 202.856 136.012 201.407L152.563 197.005C192.859 186.287 224.354 154.85 235.147 114.574L239.535 98.2014C240.991 92.7662 248.703 92.7662 250.16 98.2014Z" fill="white" stroke="black"/>
<path d="M171.896 43.7566L176.181 59.7456C186.974 100.022 218.469 131.458 258.765 142.176L274.932 146.476C280.381 147.926 280.381 155.658 274.932 157.107L258.765 161.407C218.469 172.125 186.974 203.562 176.181 243.838L171.896 259.827C170.44 265.262 162.727 265.262 161.271 259.827L156.986 243.838C146.193 203.562 114.698 172.125 74.4019 161.407L58.2345 157.107C52.7862 155.658 52.7862 147.926 58.2345 146.476L74.4018 142.176C114.698 131.458 146.193 100.022 156.986 59.7457L161.271 43.7566C162.727 38.3214 170.44 38.3214 171.896 43.7566Z" stroke="black"/>
<path d="M271.131 41.4655L271.391 44.0044C272.239 52.2741 278.787 58.8064 287.059 59.6335L289.549 59.8824C291.35 60.0625 291.35 62.6875 289.549 62.8676L287.059 63.1165C278.787 63.9436 272.239 70.4759 271.391 78.7456L271.131 81.2845C270.947 83.0806 268.331 83.0806 268.147 81.2845L267.887 78.7456C267.039 70.4759 260.491 63.9436 252.219 63.1165L249.729 62.8676C247.928 62.6875 247.928 60.0625 249.729 59.8824L252.219 59.6335C260.491 58.8064 267.039 52.2741 267.887 44.0044L268.147 41.4655C268.331 39.6694 270.947 39.6694 271.131 41.4655Z" fill="white" stroke="black"/>
<path d="M25.1233 110.159C30.5974 109.616 34.9341 105.282 35.4992 99.8117C35.5991 98.8445 37.012 98.8445 37.1119 99.8117C37.677 105.282 42.0137 109.616 47.4878 110.159C48.4532 110.255 48.4532 111.662 47.4878 111.758C42.0137 112.301 37.677 116.635 37.1119 122.105C37.012 123.072 35.5991 123.072 35.4992 122.105C34.9341 116.635 30.5974 112.301 25.1233 111.758C24.1579 111.662 24.1579 110.255 25.1233 110.159Z" fill="white" stroke="black"/>
</g>
<defs>
<clipPath id="clip0_203_143">
<rect width="373" height="697" rx="32" fill="white"/>
</clipPath>
</defs>
</svg>
