<svg width="18" height="18" viewBox="0 0 18 18" fill="none" xmlns="http://www.w3.org/2000/svg">
<g clip-path="url(#clip0_203_154)">
<path d="M17.2174 9.19947C17.2174 8.4616 17.1588 7.92314 17.032 7.36475H8.78442V10.6952H13.6256C13.528 11.5228 13.0009 12.7693 11.8297 13.6068L11.8132 13.7183L14.421 15.7822L14.6016 15.8006C16.2609 14.235 17.2174 11.9316 17.2174 9.19947" fill="#4285F4"/>
<path d="M8.78442 17.9743C11.1562 17.9743 13.1473 17.1765 14.6016 15.8005L11.8296 13.6067C11.0879 14.1352 10.0923 14.5042 8.78442 14.5042C6.46145 14.5042 4.48986 12.9387 3.78704 10.7749L3.68402 10.7838L0.972472 12.9277L0.937012 13.0284C2.38154 15.96 5.34872 17.9743 8.78442 17.9743Z" fill="#34A853"/>
<path d="M3.78701 10.7749C3.60156 10.2165 3.49424 9.6182 3.49424 9C3.49424 8.38174 3.60156 7.78347 3.77725 7.22508L3.77234 7.10616L1.02681 4.92786L0.936978 4.97151C0.341619 6.18804 0 7.55415 0 9C0 10.4459 0.341619 11.8119 0.936978 13.0284L3.78701 10.7749" fill="#FBBC05"/>
<path d="M8.78442 3.49579C10.4339 3.49579 11.5466 4.2237 12.181 4.832L14.6602 2.35907C13.1376 0.913218 11.1562 0.0257568 8.78442 0.0257568C5.34872 0.0257568 2.38154 2.03997 0.937012 4.97155L3.77728 7.22512C4.48986 5.06132 6.46145 3.49579 8.78442 3.49579" fill="#EB4335"/>
</g>
<defs>
<clipPath id="clip0_203_154">
<rect width="17.2174" height="18" fill="white"/>
</clipPath>
</defs>
</svg>
