<svg width="20" height="20" viewBox="0 0 20 20" fill="none" xmlns="http://www.w3.org/2000/svg">
<path fill-rule="evenodd" clip-rule="evenodd" d="M12.707 14.7069C12.8945 14.5194 12.9998 14.2651 12.9998 13.9999C12.9998 13.7348 12.8945 13.4804 12.707 13.2929L9.414 9.99992L12.707 6.70692C12.8892 6.51832 12.99 6.26571 12.9877 6.00352C12.9854 5.74132 12.8802 5.49051 12.6948 5.3051C12.5094 5.11969 12.2586 5.01452 11.9964 5.01224C11.7342 5.00997 11.4816 5.11076 11.293 5.29292L7.293 9.29292C7.10553 9.48045 7.00021 9.73475 7.00021 9.99992C7.00021 10.2651 7.10553 10.5194 7.293 10.7069L11.293 14.7069C11.4805 14.8944 11.7348 14.9997 12 14.9997C12.2652 14.9997 12.5195 14.8944 12.707 14.7069Z" fill="#6F727A"/>
</svg>
